<?xml version="1.0" standalone="no"?>
<!DOCTYPE svg PUBLIC "-//W3C//DTD SVG 1.1//EN" "http://www.w3.org/Graphics/SVG/1.1/DTD/svg11.dtd" >
<!--
2013-9-30: Created.
-->
<svg>
<metadata>
Created by iconfont
</metadata>
<defs>

<font id="iconfont" horiz-adv-x="1024" >
  <font-face
    font-family="iconfont"
    font-weight="500"
    font-stretch="normal"
    units-per-em="1024"
    ascent="896"
    descent="-128"
  />
    <missing-glyph />
    
    <glyph glyph-name="shangjiantou" unicode="&#58954;" d="M874.489314 859.119384l-834.666566-772.274546a119.238081 119.238081 0 0 1 0-177.886579 143.778942 143.778942 0 0 1 192.167419 0L970.573023 592.358841l738.444208-683.400582a143.778942 143.778942 0 0 1 192.167418 0 119.238081 119.238081 0 0 1 0 177.886579L1066.518084 859.258033a143.778942 143.778942 0 0 1-192.167419 0z"  horiz-adv-x="1941" />

    
    <glyph glyph-name="xiajiantou" unicode="&#58953;" d="M874.370929-91.124377L39.817361 681.184248a119.221938 119.221938 0 0 0 0 177.862496 143.759477 143.759477 0 0 0 192.141403 0l738.344236-683.308062L1708.647236 859.046744a143.759477 143.759477 0 0 0 192.141403 0 119.221938 119.221938 0 0 0 0-177.862496l-834.553568-772.308625a143.759477 143.759477 0 0 0-192.141403 0z"  horiz-adv-x="1941" />

    
    <glyph glyph-name="suoxiao" unicode="&#58951;" d="M512 896h4778.666667a512 512 0 0 0 0-1024h-4778.666667a512 512 0 0 0 0 1024z"  horiz-adv-x="5802" />

    
    <glyph glyph-name="fangda" unicode="&#58952;" d="M421.647059-37.647059V293.647059H90.352941a90.352941 90.352941 0 0 0 0 180.705882H421.647059V805.647059a90.352941 90.352941 0 0 0 180.705882 0V474.352941h331.294118a90.352941 90.352941 0 1 0 0-180.705882H602.352941v-331.294118a90.352941 90.352941 0 0 0-180.705882 0z"  horiz-adv-x="1024" />

    
    <glyph glyph-name="fanhui" unicode="&#58950;" d="M261.354436 434.656652L668.810592 874.952121a62.899353 62.899353 0 0 0 93.837058 0 75.844917 75.844917 0 0 0 0-101.370352L402.146592 384.044615l360.501058-389.537155a75.844917 75.844917 0 0 0 0-101.370352 62.899353 62.899353 0 0 0-93.837058 0L261.354436 333.432577a75.844917 75.844917 0 0 0 0 101.370353z"  horiz-adv-x="1024" />

    
    <glyph glyph-name="guiji" unicode="&#58949;" d="M779.183685 360.388903c-5.658296 71.192501 234.030852 69.244563 234.030852 69.244562s-186.028091 40.721183-273.360651-31.816322c-110.47592-91.69223 56.211929-149.759339 93.640169-187.233958s41.138598-103.008823-123.554933-106.672802a2611.164682 2611.164682 0 0 0-280.874126 7.467096 1946.639503 1946.639503 0 0 0-61.823846-207.780067s316.493566-9.275896 443.758857 20.592488 262.183196 131.068408 204.069709 247.109866-230.320494 117.943016-235.886031 189.089137zM314.785959 890.228074A314.545628 314.545628 0 0 1 0.008433 575.682446c0-173.737529 250.866603-310.742511 314.592008-657.28998 89.837051 340.842793 314.499249 483.552451 314.499249 657.28998A314.545628 314.545628 0 0 1 314.785959 890.228074z m0-481.187097a166.641469 166.641469 0 1 0 166.641469 166.641469 166.641469 166.641469 0 0 0-166.641469-166.641469z m798.329976 342.141418a139.138438 139.138438 0 1 1-278.044978 0c0-76.758038 110.846955-137.376018 139.138438-290.521058 39.700834 150.686928 139.138438 213.71664 139.138438 290.521058z m-212.696292 0a73.650613 73.650613 0 1 0 73.882511-73.650613 73.650613 73.650613 0 0 0-73.650613 73.650613z"  horiz-adv-x="1153" />

    
    <glyph glyph-name="shouye" unicode="&#58944;" d="M852.822528 552.6528L511.779328 800.7168 170.684928 552.6528v-551.8336a42.6496 42.6496 0 0 1 42.6496-42.6496h128v170.6496a128 128 0 0 0 128 128h85.248a128 128 0 0 0 128-128v-256h-42.9056a42.6496 42.6496 0 0 0-42.6496 42.6496v213.3504a42.6496 42.6496 0 0 1-42.6496 42.6496H469.129728a42.6496 42.6496 0 0 1-42.6496-42.6496v-213.1456a42.6496 42.6496 0 0 0-42.5984-42.8544H213.334528a128 128 0 0 0-128 128V490.6496l-17.5616-12.8a42.6496 42.6496 0 1 0-50.176 68.9664L486.691328 887.8592a42.6496 42.6496 0 0 0 50.1248 0l468.9408-341.0432a42.6496 42.6496 0 1 0-50.1248-68.9152l-17.5616 12.7488v-489.8304a128 128 0 0 0-128-128h-128v85.3504h128a42.6496 42.6496 0 0 1 42.6496 42.6496z"  horiz-adv-x="1025" />

    
    <glyph glyph-name="wode" unicode="&#58945;" d="M208.5888-128a157.696 157.696 0 0 0-140.9536 227.328 513.6896 513.6896 0 0 0 291.4304 257.9968 294.8096 294.8096 0 1 0 331.5712 0 513.6896 513.6896 0 0 0 291.4304-257.9968A157.7472 157.7472 0 0 0 841.1136-128z m86.4768 367.104a436.5312 436.5312 0 0 1-156.5696-174.6944 78.6944 78.6944 0 0 1 70.0928-113.4592h632.7808a78.6944 78.6944 0 0 1 70.0928 113.4592 436.1728 436.1728 0 0 1-156.5696 174.6944 427.264 427.264 0 0 1-459.6736 0z m13.9264 361.8304a215.808 215.808 0 1 1 215.808 215.9104 216.064 216.064 0 0 1-215.9104-215.6544z"  horiz-adv-x="1024" />

    
    <glyph glyph-name="lindi" unicode="&#58946;" d="M1022.443146-127.948953H1.505957v75.90668h247.219941v70.087338a185.606381 185.606381 0 0 0-153.140579 143.594815 484.587836 484.587836 0 0 0-6.636091 191.017348A455.44008 455.44008 0 0 0 200.588709 581.142971a319.55334 319.55334 0 0 0 80.29671 64.676371 324.811167 324.811167 0 0 0 112.711466-102.093719A678.310668 678.310668 0 0 1 374.148031 466.236491c-1.071984-7.657029-2.041874-15.314058-2.909671-22.971087a230.731805 230.731805 0 0 1-79.47996 90.710269 334.765304 334.765304 0 0 1-125.217946-206.025125 371.672183 371.672183 0 0 1 2.807577-131.445663 120.011167 120.011167 0 0 1 94.845065-102.093718 16.232901 16.232901 0 0 0 2.246062 0l5.104686-0.66361a133.181256 133.181256 0 0 1 15.314058-0.918843 98.112064 98.112064 0 0 1 11.996012 0.714656 117.407777 117.407777 0 0 1 99.94975 86.779661 244.106082 244.106082 0 0 1 46.605783-70.240479 176.724227 176.724227 0 0 0-126.494118-91.884347v-71.465603h306.893719v103.523031a242.625723 242.625723 0 0 0-197.755533 189.434895A633.440479 633.440479 0 0 0 420.090205 489.462812a615.318843 615.318843 0 0 0 147.525423 300.35972A418.226919 418.226919 0 0 0 672.976346 874.611366c7.96331-3.675374 194.590628-93.364706 250.589033-385.148554 30.628116-200.103689-21.28654-304.341376-54.77328-348.65005a243.595613 243.595613 0 0 0-171.721635-92.854238v-100.000797H1022.443146v-75.855633z m-383.259821 266.107278l2.705484-0.306281c1.837687 0 4.39003-0.612562 7.554935-0.96989a183.105085 183.105085 0 0 1 21.899103-1.327219 150.945563 150.945563 0 0 1 17.253838 0.969891 160.338185 160.338185 0 0 1 112.660419 63.144965c68.91326 91.118644 49.158126 246.556331 44.512861 276.827118a475.450449 475.450449 0 0 1-94.079362 210.670389 271.211964 271.211964 0 0 1-73.099102 66.360917 472.489731 472.489731 0 0 1-179.480758-288.567896c-10.209372-68.555932-30.321834-294.693519 139.868395-326.6999z"  horiz-adv-x="1024" />

    
    <glyph glyph-name="tongxunlu" unicode="&#58947;" d="M791.808-105.5232H104.1408A104.2944 104.2944 0 0 0 0-1.3824v14.8992a330.5984 330.5984 0 0 0 111.4112 210.2784c44.3392 29.9008 88.0128 44.8512 184.32 107.008a47.4624 47.4624 0 0 1 21.8624 39.936v20.48a30.72 30.72 0 0 1-13.4144 22.0672 201.728 201.728 0 0 0-80.896 161.9968V641.3824a203.5712 203.5712 0 0 0 243.8144 199.168 207.5136 207.5136 0 0 0 162.7136-205.9264v-59.392a202.3424 202.3424 0 0 0-89.1392-167.2704 30.72 30.72 0 0 1-15.0016-22.9376v-9.0112a47.2576 47.2576 0 0 1 24.9344-41.7792 2335.488 2335.488 0 0 0 224.5632-122.112 262.4512 262.4512 0 0 0 120.9344-198.8096v-14.8992a104.1408 104.1408 0 0 0-104.2944-103.936zM427.4176 757.0432a99.072 99.072 0 0 1-63.5904-22.9376 142.4384 142.4384 0 0 1-46.4384-92.16v-66.0992a98.7648 98.7648 0 0 1 33.5872-82.5344A128.8192 128.8192 0 0 0 406.9376 391.68v-20.48a165.8368 165.8368 0 0 0-83.5072-126.464c-52.8896-28.7744-131.4816-49.5616-183.04-106.8544a266.8032 266.8032 0 0 1-50.7392-128l1.4336-26.0096 710.0928-1.0752 1.6896 31.0784a242.4832 242.4832 0 0 1-66.048 123.8528c-50.2784 47.0528-156.8256 81.92-211.3536 111.0016a150.1184 150.1184 0 0 0-86.1696 128v8.448a133.8368 133.8368 0 0 0 62.8736 107.52 94.208 94.208 0 0 1 38.2976 82.432v59.392a135.0144 135.0144 0 0 1-92.16 120.2688 110.4896 110.4896 0 0 1-20.8896 2.2016zM1024 641.6896a51.2 51.2 0 0 1-51.2 51.2h-204.8a51.2 51.2 0 1 1 0-102.4h204.8a51.2 51.2 0 0 1 51.2 51.2z m0-153.6a51.2 51.2 0 0 1-51.2 51.2h-153.6a51.2 51.2 0 0 1 0-102.4h153.6a51.2 51.2 0 0 1 51.2 51.2z m0-153.6a51.2 51.2 0 0 1-51.2 51.2h-51.2a51.2 51.2 0 1 1 0-102.4h51.2a51.2 51.2 0 0 1 51.2 51.2512z"  horiz-adv-x="1024" />

    
    <glyph glyph-name="wenti" unicode="&#58948;" d="M26.902446-106.53955A81.207787 81.207787 0 0 0 0.293719-49.944836V818.21604A81.412469 81.412469 0 0 0 85.748668 895.893053h779.072812a81.361299 81.361299 0 0 0 83.408124-77.677013v-269.618039a46.360589 46.360589 0 0 0-92.721178 0V776.716661a34.284321 34.284321 0 0 1-35.819439 32.544519H128.27146a34.540174 34.540174 0 0 1-35.819439-32.544519v-785.162117a34.489003 34.489003 0 0 1 35.819439-32.54452H288.896062a49.635509 49.635509 0 0 0 34.130809-13.86724 40.936502 40.936502 0 0 0 12.178609-29.678964 45.081323 45.081323 0 0 0-46.309418-43.085669H81.347994a81.310128 81.310128 0 0 0-54.445548 21.082299z m398.772704 0c-21.594005 20.468251-22.00337 79.314473 0 154.535296l21.542835 20.468252 411.104826 396.930562 162.671426-154.944662-411.514191-396.930562-21.133469-20.468251a388.231555 388.231555 0 0 0-102.597109-17.039819 86.427191 86.427191 0 0 0-60.074318 17.500354z m76.397748 121.990777l-7.3174-6.908035a81.156616 81.156616 0 0 1-9.364225-57.720468 86.427191 86.427191 0 0 1 59.767294 8.903689l7.726765 7.3174 353.077333 339.158923-50.863604 48.816779z m-247.614669 210.669476a40.629479 40.629479 0 1 0 0 81.258957h71.178344a40.629479 40.629479 0 1 0 0-81.258957z m0 191.531661a40.629479 40.629479 0 1 0 0 81.310128h312.140831a40.629479 40.629479 0 1 0 0-81.310128z m1.63746 189.331323a40.680649 40.680649 0 0 0 0 81.361299h386.338242a40.680649 40.680649 0 0 0 0-81.361299z"  horiz-adv-x="1024" />

    
    <glyph glyph-name="qitaqingkuang" unicode="&#58999;" d="M665.6 384a76.8 76.8 0 1 0 76.8-76.8 76.8 76.8 0 0 0-76.8 76.8z m-230.4 0a76.8 76.8 0 1 0 76.8-76.8 76.8 76.8 0 0 0-76.8 76.8z m-230.4 0a76.8 76.8 0 1 0 76.8-76.8 76.8 76.8 0 0 0-76.8 76.8z"  horiz-adv-x="1024" />

    
    <glyph glyph-name="xunlinjianguan" unicode="&#59000;" d="M673.7152 101.4528a157.7984 157.7984 0 0 0-141.7472 91.776 15.1808 15.1808 0 0 0 0 13.5424 163.4048 163.4048 0 0 0 142.7456 91.8272c81.92 0 126.6688-65.0496 141.6704-89.6a19.456 19.456 0 0 0 0.8192-18.5856 157.7728 157.7728 0 0 0-142.0032-89.0624z m-72.2688 98.5344a73.2672 73.2672 0 1 1 73.2672 73.2928 73.2672 73.2672 0 0 1-73.2672-73.2928z m-79.616-75.2384h-78.5664L493.568 665.6h154.3424a48.2816 48.2816 0 0 0 47.5136-44.5184l21.0944-232.2176c0-0.1536 3.5584-17.28 6.272-38.5792a238.08 238.08 0 0 1-25.9328 1.4336 250.88 250.88 0 0 1-219.1104-141.0048 23.552 23.552 0 0 1 0-20.7616 241.5104 241.5104 0 0 1 44.1088-65.2288z m-126.592 0H252.7488a48 48 0 0 0-47.744 52.3264l17.5616 193.4592h195.0464l-22.3744-245.76z m240 75.2384a39.4752 39.4752 0 1 0 39.5008-39.4496 39.4752 39.4752 0 0 0-39.5008 39.4496z m-213.3248 220.8512H227.1488L245.504 622.08A47.8208 47.8208 0 0 0 293.248 665.6h151.04z"  horiz-adv-x="1024" />

    
    <glyph glyph-name="toufa" unicode="&#59001;" d="M498.688 159.4112l-10.24 23.552-112.768 155.264-28.5184 3.8656c77.2096 64.1792 136.0384 118.8864 194.56 170.2656s119.0656 104.6784 196.4544 168.96a32.5376 32.5376 0 0 0 31.0016 8.96 19.0464 19.0464 0 0 0 12.0832-15.6672l19.84-121.088a87.6288 87.6288 0 0 0-6.784-35.84v-5.12l-6.4512-2.9952-30.1568-12.0832-5.5296-37.5296-36.0704-13.5168-6.144-37.376-36.1472-13.0816-6.4256-37.2736-36.1728-12.8-6.4512-37.2224-36.096-12.9792-6.272-37.1968-35.84-13.2352-5.7856-37.2224-34.0992-10.624zM431.9232 77.1584a47.0272 47.0272 0 0 0-26.1888 8.6272L243.7888 199.168A29.8752 29.8752 0 0 0 230.4 222.4128a38.0672 38.0672 0 0 0 14.4128 30.3872l102.912 89.3952a36.8128 36.8128 0 0 0 54.0672-0.7936l100.4288-143.36a42.2656 42.2656 0 0 0 1.9456-47.5648l-49.792-63.2832a27.52 27.52 0 0 0-22.4512-10.0352z m-54.9888 256a25.088 25.088 0 0 1-15.616-6.7584l-97.8688-89.8048a17.92 17.92 0 0 1-7.2704-13.568 9.3696 9.3696 0 0 1 4.5056-7.3472l156.9024-112.9728a26.5472 26.5472 0 0 1 14.3616-4.9152 7.8848 7.8848 0 0 1 6.0928 1.9712l49.792 63.2832a23.04 23.04 0 0 1-2.56 23.04l-100.4288 143.36a8.7552 8.7552 0 0 1-7.9104 3.7888z m40.6272-201.344a33.792 33.792 0 0 0-18.8672 6.1696l-76.5696 53.2992c-5.9904 3.968-35.84 23.936-36.2496 31.104a39.2192 39.2192 0 0 0 15.1552 24.96l47.7952 43.52a27.264 27.264 0 0 0 40.1152-1.2288l64.2048-91.6736a30.8992 30.8992 0 0 0 1.1264-34.8672l-19.5328-23.4752a21.1968 21.1968 0 0 0-17.1776-7.68z"  horiz-adv-x="1024" />

    
    <glyph glyph-name="fugaifanwei" unicode="&#59002;" d="M556.9536 262.0928a129.9712 129.9712 0 1 1-89.856 0l-104.6016-146.432a307.2 307.2 0 1 0 299.0592 0l-104.6016 146.432z m-44.928-19.7888l118.144-165.4272h-236.288z m0 70.8864a70.8864 70.8864 0 1 0 70.8864 70.8864 70.8864 70.8864 0 0 0-70.8864-70.8864z"  horiz-adv-x="1024" />

    
    <glyph glyph-name="yeshengzhiwu" unicode="&#59003;" d="M675.4048 603.4176a16.6144 16.6144 0 0 0 21.7088 0.768 308.48 308.48 0 0 0-76.1344-526.1312 16.64 16.64 0 0 0-19.8656 25.0368 331.4176 331.4176 0 0 1 59.3664 161.28v0.2304l-2.9184-8.7296a365.7984 365.7984 0 0 0-72.96-122.624l-5.12-5.6832a16.6144 16.6144 0 0 0-27.9296 6.2976 450.7904 450.7904 0 0 0 119.808 465.7664zM265.1392 680.8576a16.6144 16.6144 0 0 0 18.4832 10.0352 531.2 531.2 0 0 0 290.0992-163.84 16.64 16.64 0 0 0 2.56-18.688 595.584 595.584 0 0 1-49.6384-141.4144 16.6144 16.6144 0 0 0-30.3872-5.2736 1412.864 1412.864 0 0 1-27.6992 43.52l-4.224 6.144a229.632 229.632 0 0 1-55.3728 57.472l-1.9968 1.3824 4.3776-6.0928a500.5824 500.5824 0 0 0 91.0848-200.0128l1.6128-7.4752q8.0896-38.4 18.2016-114.176l3.0976-23.6032a16.6144 16.6144 0 0 0-22.8608-17.4848A442.24 442.24 0 0 0 262.5792 674.816z"  horiz-adv-x="1024" />

    
    <glyph glyph-name="ziyuanjianguan" unicode="&#59004;" d="M790.0672 430.592a71.0912 71.0912 0 0 1-99.5328-14.208 69.9648 69.9648 0 0 1-9.088-17.0496l-88.1408 9.2416a81.92 81.92 0 0 1-23.3216 47.3344l36.8128 83.0208a47.488 47.488 0 1 1-41.2416 23.04l-37.12-83.6096a82.4576 82.4576 0 0 1-63.1296-12.6464L392.96 538.112a71.0912 71.0912 0 1 1-33.28-33.28l75.9296-75.9296a81.4592 81.4592 0 0 1-4.6848-46.6432l-62.848-36.1472a94.976 94.976 0 1 1 23.3216-40.96l61.8496 35.6864a81.92 81.92 0 0 1 59.136-25.6h6.8352l46.9248-105.9328a46.9248 46.9248 0 1 1 41.3696 23.04l-44.3648 99.5328a82.6112 82.6112 0 0 1 23.4496 29.2864l94.1312-9.8048a71.0912 71.0912 0 1 1 109.3376 78.336z"  horiz-adv-x="1024" />

    
    <glyph glyph-name="xunlinmoshi" unicode="&#59007;" d="M720.9984 243.2a18.6112 18.6112 0 0 1-6.5536 1.2288h-395.776a21.1456 21.1456 0 0 0-20.9408 16.4352 21.6064 21.6064 0 0 0 4.1216 17.2544 20.864 20.864 0 0 0 16.0256 7.68h90.4448a20.48 20.48 0 1 1 0 40.96h-89.6a61.8496 61.8496 0 0 1-1.7408-123.6992h392.0128a21.1456 21.1456 0 0 0 20.9408-16.4352 21.6064 21.6064 0 0 0-4.1216-17.2544 20.864 20.864 0 0 0-16.0256-7.68H365.9264a21.1456 21.1456 0 0 1-20.9408-16.4352 21.6064 21.6064 0 0 1 4.096-17.2544 20.864 20.864 0 0 1 16.0256-7.68h344.2944a63.2064 63.2064 0 0 1 63.6928 59.5712 62.208 62.208 0 0 1-52.1728 63.3088zM511.7696 665.6a158.5664 158.5664 0 0 1-159.1296-158.0032 156.672 156.672 0 0 1 39.9616-104.3712 17.2544 17.2544 0 0 1 2.56-3.6608l103.3472-107.52a21.2992 21.2992 0 0 1 1.6384-2.0224 16.3328 16.3328 0 0 1 5.2736-3.5072 15.8976 15.8976 0 0 1 17.92 2.9696 15.36 15.36 0 0 1 3.0976 4.3776l101.504 105.4976a13.8752 13.8752 0 0 1 2.3808 3.1232 156.4416 156.4416 0 0 1 40.3712 104.96A158.3616 158.3616 0 0 1 511.7696 665.6z m0-222.2336a71.1424 71.1424 0 1 0 50.6624 20.6336 71.1424 71.1424 0 0 0-50.6624-20.6336z"  horiz-adv-x="1024" />

    
    <glyph glyph-name="shoucangdianwei" unicode="&#59008;" d="M486.4 76.8V360.2176A179.2 179.2 0 0 0 332.8 537.6a179.2 179.2 0 0 0 179.2 179.2 179.2 179.2 0 0 0 179.2-179.2 179.2 179.2 0 0 0-153.6-177.408V76.8z"  horiz-adv-x="1024" />

    
    <glyph glyph-name="dongwuhuilin" unicode="&#59010;" d="M230.6048 451.6608c2.9952-49.8432 35.328-88.4736 72.2176-86.2464s64.3584 44.416 61.44 94.2592-35.328 88.4736-72.2176 86.2464-64.4352-44.416-61.44-94.2592zM428.0832 485.1456c35.584-2.7648 67.5584 35.3536 71.424 85.1456s-21.8368 92.3904-57.4208 95.1552-67.5584-35.3536-71.424-85.1456 21.8624-92.3904 57.4208-95.1552zM585.2928 475.2128c34.8416-7.68 71.8592 25.6 82.7392 74.24s-8.576 94.5408-43.52 102.4-71.8592-25.6-82.7392-74.24 8.7808-94.6432 43.52-102.4zM715.8272 330.0608c38.8864-3.0208 73.5232 34.8928 77.3888 84.6848s-24.5248 92.5952-63.4112 95.616-73.5232-34.8928-77.3888-84.6848 24.5248-92.5952 63.4112-95.616zM724.1472 264.3968a439.0912 439.0912 0 0 0-124.3904 108.3136 181.76 181.76 0 0 1-49.7408 52.1472 112.0768 112.0768 0 0 1-134.5536-40.1152 548.2752 548.2752 0 0 0-98.3808-89.2672 104.8064 104.8064 0 0 1-54.272-85.248c4.5312-102.4 85.9392-101.2992 85.9392-101.2992a320.8704 320.8704 0 0 1 92.7232 11.0336c32.7936 17.0496 107.52 6.016 107.52 6.016 12.4416-2.0224 98.3552-17.0496 98.3552-17.0496 56.5248-9.0112 91.5712 52.1472 91.5712 52.1472 28.288 74.368-14.7712 103.3216-14.7712 103.3216z"  horiz-adv-x="1024" />

    
    <glyph glyph-name="huilinkaiken" unicode="&#59011;" d="M554.752 155.1872c-133.12 30.208-343.3472 120.32-349.0304 167.5776-16.5888 134.912 193.3312 275.5072 285.1584 289.6128 84.48 14.6176 320.5632-53.2224 327.9872-109.1584 2.9696-22.272-15.2064-76.1344-52.5824-132.8128a93.2608 93.2608 0 0 0-14.0032-20.8896l-100.0704-146.1504A99.5328 99.5328 0 0 0 573.44 152.576a68.1728 68.1728 0 0 0-18.688 2.56z m-37.632 250.5216l-74.24-69.5552a19.8144 19.8144 0 0 1 6.4256-32.9216l93.0816-35.1488h2.56l3.84-1.3056c20.1216 1.8944 25.6 11.52 25.6 11.52a374.7584 374.7584 0 0 1 62.464 75.4432 17.6384 17.6384 0 0 1-3.5328 21.2736c-7.3984 3.584-13.4144 6.528-16.7168 7.68l-79.36 27.2384a19.7888 19.7888 0 0 1-19.8144-4.1984z m-130.9184-66.3552l72.5248 67.328a19.7888 19.7888 0 0 1-7.1936 33.28l-62.8736 21.6832a19.8144 19.8144 0 0 1-19.5584-4.224l-74.24-64.3584a19.7888 19.7888 0 0 1 5.9392-33.664l65.1008-24.7552-0.256 0.7424a19.84 19.84 0 0 1 20.48 3.968z m244.7872 171.8016l-46.2848-42.8288a19.8144 19.8144 0 0 1 6.9376-33.4336l65.5872-22.5024a19.8144 19.8144 0 0 1 21.7856 6.1696l38.4 46.7968a19.7888 19.7888 0 0 1-9.1648 31.4368l-57.6768 18.56a19.84 19.84 0 0 1-19.5584-4.1984z m-197.632-11.0336a19.7888 19.7888 0 0 1 12.4928-15.2064l58.88-20.3008a19.7888 19.7888 0 0 1 19.7888 4.1984l44.8 41.344a19.7888 19.7888 0 0 1-7.424 33.28l-56.704 17.92a19.84 19.84 0 0 1-19.0464-3.968l-46.08-39.6032v0.7936a19.8656 19.8656 0 0 1-6.7072-18.4576z"  horiz-adv-x="1024" />

    
    <glyph glyph-name="huozai" unicode="&#59012;" d="M654.3104 528.64a100.9408 100.9408 0 0 1-74.24-112.64c-47.3856 58.88-45.44 126.4896-45.44 224-151.9872-60.5184-116.6336-235.008-121.1904-288-38.2208 33.0496-45.44 112-45.44 112-40.3456-21.9392-60.5952-80.4864-60.5952-128a197.12 197.12 0 1 1 393.856 0c-0.0512 68.1728-47.5136 99.6608-46.9504 192.64z"  horiz-adv-x="1024" />

    
    <glyph glyph-name="yeshengdongwu" unicode="&#59013;" d="M238.592 330.3424a19.712 19.712 0 0 1 27.776 27.5712l-2.7648 3.2256a69.3248 69.3248 0 0 0-1.536 84.9152c16.9216 22.1184 54.7328 21.7344 80.8448 9.0112l74.7008-33.9712a232.96 232.96 0 0 1-16.0768-84.8384 157.696 157.696 0 0 1 0.8448-20.0448l-3.3024-7.68-40.8064-37.9648v-35.5584l28.16-25.6h40.7296v17.92l-14.7712 6.2976-13.6448 0.4352-9.8816 11.4432v4.8384a353.28 353.28 0 0 1 55.9616 25.4208l11.648 6.2208 38.4 45.0048 4.736-6.144-13.7216-85.8368 28.16-25.6h40.7552v17.92l-14.72 6.272-13.3376 0.6912-10.7008 11.0592v5.12a309.76 309.76 0 0 1 46.8224 69.12v15.36h36.1472l-3.5072-5.4528 4.3776-69.4528 5.9392-22.656 17.536-28.16v-0.4608h44.3136v15.36l-6.3488 5.4528-23.04 5.2992-6.7328 8.32 9.9584 61.0304 14.5408 11.3152 9.6512 13.5168 4.1216 1.9712 25.6-37.8368 25.984-25.6 35.84-58.5216v-0.4608h44.3136v15.36l-6.3488 5.4528-23.04 5.2992-6.8864 8.5504-14.08 45.6192-31.616 78.3104 11.8528 12.416 30.72 15.36 20.8384-1.1264 7.68 0.896a63.744 63.744 0 0 1 23.3984 7.68l5.2992 9.2928-0.9728 5.9136-22.4256 17.1264-3.3024 18.5856-12.544 16.128a75.904 75.904 0 0 1-39.296 9.216l-7.68-1.2288-9.1136 4.6848-10.7264-1.9712v-5.6832l-60.4672-10.0608h-32.0256a222.3872 222.3872 0 0 1-172.16 15.36h-1.664a164.1472 164.1472 0 0 0-50.688 7.9104l-60.5696 20.0704a101.0176 101.0176 0 0 1-107.1872-33.024 106.0608 106.0608 0 0 1 9.8048-144.3072z"  horiz-adv-x="1024" />

    
    <glyph glyph-name="zhengchangqingkuang" unicode="&#59014;" d="M509.9008 113.3312a28.16 28.16 0 0 0-20.48 9.2416l-74.6752 82.7904h-155.7504a27.9808 27.9808 0 0 0-27.904 27.8528L230.4 637.696a27.6224 27.6224 0 0 0 8.1408 19.7376 28.16 28.16 0 0 0 19.7376 8.192h502.1952a27.9552 27.9552 0 0 0 27.904-27.8528l0.6912-404.48a27.9808 27.9808 0 0 0-8.1664-19.7632 27.7248 27.7248 0 0 0-19.7376-8.1664h-154.4704l-75.9808-82.9952a28.288 28.288 0 0 0-20.8384-9.0112z m-114.6624 363.2128a14.208 14.208 0 0 1-9.8816-4.9408l-19.7376-19.7376a14.3104 14.3104 0 0 1-4.8896-9.856 14.208 14.208 0 0 1 4.8896-9.9072l85.8112-85.7856a20.2496 20.2496 0 0 1 2.8672-3.4816l19.712-19.712a14.1312 14.1312 0 0 1 9.9072-4.9152 14.1056 14.1056 0 0 1 9.8048 4.9152l167.68 167.68a14.3104 14.3104 0 0 1 4.8896 9.856 14.3104 14.3104 0 0 1-4.8896 9.8816l-19.712 19.7376a14.208 14.208 0 0 1-9.8816 4.9152 14.208 14.208 0 0 1-9.9072-4.9152l-137.7536-137.7536-79.0784 79.0784a14.2336 14.2336 0 0 1-9.8304 4.9408z"  horiz-adv-x="1024" />

    
    <glyph glyph-name="bingchonghai" unicode="&#59015;" d="M819.2 330.0096a22.784 22.784 0 0 0-7.296-16.8448 23.9104 23.9104 0 0 0-17.2544-7.1168H708.608a213.9392 213.9392 0 0 0-25.6-108.5952l79.872-78.2592a23.04 23.04 0 0 0 0-33.7152 24.5504 24.5504 0 0 0-34.56 0l-76.032 73.7792a73.0368 73.0368 0 0 0-5.76-4.864q-3.84-2.9952-16.128-10.6752a245.2992 245.2992 0 0 0-24.96-13.6704 179.6608 179.6608 0 0 0-31.488-10.8544 148.3008 148.3008 0 0 0-37.248-4.864V449.8432h-49.1776v-335.5392a153.984 153.984 0 0 0-38.9632 5.12 160 160 0 0 0-33.408 12.3648q-14.0032 7.296-25.344 14.6176a136.9856 136.9856 0 0 0-16.7168 12.16l-5.7344 5.248-70.272-77.5424a24.8576 24.8576 0 0 0-18.432-7.8592 25.344 25.344 0 0 0-16.512 5.9904 23.7824 23.7824 0 0 0-7.8592 16.6656 23.4496 23.4496 0 0 0 5.9136 17.408l77.5936 85.0176a219.264 219.264 0 0 0-22.272 102.6048H229.4016a23.9104 23.9104 0 0 0-17.28 7.1168 23.04 23.04 0 0 0 0 33.6896 23.9104 23.9104 0 0 0 17.28 7.1168h86.016v110.08l-66.304 64.7936a23.04 23.04 0 0 0 0 33.7152 24.5504 24.5504 0 0 0 34.56 0l66.56-64.7936h323.84l66.56 64.7936a24.5504 24.5504 0 0 0 34.56 0 23.04 23.04 0 0 0 0-33.7152l-66.56-64.7936v-110.08h86.016a23.9104 23.9104 0 0 0 17.28-7.1168 22.7584 22.7584 0 0 0 7.296-16.8448z m-184.32 215.7312h-245.76a114.0736 114.0736 0 0 0 35.84 84.8128 125.44 125.44 0 0 0 173.952 0 114.2272 114.2272 0 0 0 35.84-84.8128z m0 0"  horiz-adv-x="1024" />

    
    <glyph glyph-name="zhengzaixunlin" unicode="&#59016;" d="M268.3136 51.2512A37.888 37.888 0 0 0 230.4 84.5312v547.84a38.5536 38.5536 0 0 0 76.3648 0v-547.84a38.2208 38.2208 0 0 0-38.4-33.28z m394.9056 238.08a246.2208 246.2208 0 0 0-107.7248 22.0672 246.272 246.272 0 0 1-107.8016 22.0928 241.3312 241.3312 0 0 1-110.592-28.9792l0.4864 330.5728a235.2384 235.2384 0 0 0 110.2592 29.0048 245.9904 245.9904 0 0 0 107.7248-22.0928 246.1696 246.1696 0 0 1 107.8016-22.0928 340.736 340.736 0 0 1 135.1936 35.3536v-330.6752a336.3584 336.3584 0 0 0-135.3472-35.2512z"  horiz-adv-x="1024" />

    
    <glyph glyph-name="zerenqu" unicode="&#59021;" d="M316.0576 148.4288a118.8352 118.8352 0 0 1 42.0352 23.04 253.1328 253.1328 0 0 1 153.3184-51.2v0.5632a253.2864 253.2864 0 0 1 153.2928 50.7648 119.7824 119.7824 0 0 1 42.0608-23.04 299.1872 299.1872 0 0 0-195.3536-71.68 299.136 299.136 0 0 0-195.3536 71.552z m375.936 58.3424a68.7104 68.7104 0 0 0-15.9488 77.6192 74.5984 74.5984 0 0 0 68.992 43.7248 72.8576 72.8576 0 0 0 74.24-71.1168 71.2448 71.2448 0 0 0-46.08-65.7664 76.9792 76.9792 0 0 0-28.416-5.376 76.1856 76.1856 0 0 0-52.8128 20.9152z m-414.1824-20.1216a72.448 72.448 0 0 0-73.0368 71.5008 72.6272 72.6272 0 0 0 74.24 70.2208 72.5248 72.5248 0 0 0 73.984-70.5792 69.7344 69.7344 0 0 0-22.0928-50.6112 76.3392 76.3392 0 0 0-52.3264-20.48zM358.4 358.3488a153.6 153.6 0 0 0 153.6 153.6 153.6 153.6 0 0 0 153.6-153.6 153.6 153.6 0 0 0-153.6-153.6 153.6 153.6 0 0 0-153.6 153.6z m-141.6192 0.9984a282.496 282.496 0 0 0 175.232 257.5616 105.3952 105.3952 0 0 1 10.24-43.776 238.6688 238.6688 0 0 1-138.3936-201.7536 115.9168 115.9168 0 0 1-44.3648-15.36 11.3408 11.3408 0 0 0-2.7392 3.3536z m542.2848 12.0064a238.3104 238.3104 0 0 1-139.5712 201.4976 106.4704 106.4704 0 0 1 10.24 44.0576 282.4448 282.4448 0 0 0 175.232-257.5872v-3.072a120.8832 120.8832 0 0 1-45.9264 15.0528z m-247.6288 176.896a72.8832 72.8832 0 0 0-74.24 71.1936 71.424 71.424 0 0 0 46.08 66.2272 77.2352 77.2352 0 0 0 81.6128-15.5648 69.12 69.12 0 0 0 16-78.08 74.9824 74.9824 0 0 0-69.12-43.776z"  horiz-adv-x="1024" />

    
    <glyph glyph-name="ziranzaihai" unicode="&#59022;" d="M332.4672 345.9328h166.784l-18.432-241.2544a25.2416 25.2416 0 0 1 45.6192-17.0496c76.8 107.1872 210.944 294.2464 210.944 294.2464a25.6 25.6 0 0 1-20.48 40.576h-166.784l18.432 241.2544a25.2672 25.2672 0 0 1-45.696 16.9728l-210.8672-294.2464a25.6 25.6 0 0 1 20.48-40.4992z"  horiz-adv-x="1024" />

    
    <glyph glyph-name="xiangji" unicode="&#58942;" d="M1023.734302 738.4411a157.791386 157.791386 0 0 0 157.5589-157.5589v-551.3233a157.791386 157.791386 0 0 0-157.5589-157.5589H157.5589A157.791386 157.791386 0 0 0 0 29.691749v551.3233A157.791386 157.791386 0 0 0 157.5589 738.573949H295.588998l31.319149 83.562014A113.51946 113.51946 0 0 0 369.718734 874.113129a110.098599 110.098599 0 0 0 63.634665 21.853659h314.951739a108.703684 108.703684 0 0 0 63.634665-21.853659 114.449403 114.449403 0 0 0 42.810586-51.977166l31.319149-83.562014h138.063311z m-627.711469-627.711468a274.499222 274.499222 0 1 1-80.905033 194.623767 265.531915 265.531915 0 0 1 80.905033-194.590555z m69.546446 319.833938a176.456668 176.456668 0 1 0-51.977167-125.077322 170.378827 170.378827 0 0 0 51.977167 125.077322z"  horiz-adv-x="1181" />

    
    <glyph glyph-name="huatong" unicode="&#58943;" d="M680.031943-60.853602H344.230227a33.608062 33.608062 0 0 1 0-67.146398h335.801716a33.608062 33.608062 0 0 1 0 67.146398zM478.383571 63.956421v-142.729674a33.608062 33.608062 0 1 1 67.146398 0v142.729674a33.608062 33.608062 0 0 1-67.146398 0zM512.131085 39.273322a340.96146 340.96146 0 0 0-144.891188 32.14381 368.363884 368.363884 0 0 0-117.419039 87.018385 419.891597 419.891597 0 0 0-107.099551 283.785918 33.608062 33.608062 0 1 0 67.146398 0 303.867084 303.867084 0 1 1 604.387308 0 33.608062 33.608062 0 0 0 67.146398 0 419.821871 419.821871 0 0 0-107.099551-283.785918 368.154705 368.154705 0 0 0-117.419038-87.018385 340.96146 340.96146 0 0 0-144.751737-32.14381zM511.921907 896a212.246766 212.246766 0 0 1-201.439194-221.590086v-295.499932a202.206183 202.206183 0 1 1 402.948114 0V674.409914A212.246766 212.246766 0 0 1 511.921907 896z"  horiz-adv-x="1024" />

    
    <glyph glyph-name="renwudidian" unicode="&#58941;" d="M514.048 809.7792a298.5984 298.5984 0 0 1-299.6224-297.506133 295.0144 295.0144 0 0 1 75.093333-196.7104 32.494933 32.494933 0 0 1 4.9152-6.826667l194.56-202.4448a40.072533 40.072533 0 0 1 3.072-3.7888 30.72 30.72 0 0 1 9.9328-6.587733 29.934933 29.934933 0 0 1 33.8944 5.597866 29.149867 29.149867 0 0 1 5.870934 8.533334l190.976 198.656a26.146133 26.146133 0 0 1 4.471466 5.870933 294.6048 294.6048 0 0 1 76.014934 197.563733 298.222933 298.222933 0 0 1-299.178667 297.642667z m0-418.474667a133.973333 133.973333 0 1 0 134.9632 133.973334 134.5536 134.5536 0 0 0-135.099733-133.973334zM201.8304 39.287467m36.625067 0l549.444266 0q36.625067 0 36.625067-36.625067l0 0q0-36.625067-36.625067-36.625067l-549.444266 0q-36.625067 0-36.625067 36.625067l0 0q0 36.625067 36.625067 36.625067Z"  horiz-adv-x="1024" />

    
    <glyph glyph-name="gongshipai" unicode="&#58937;" d="M430.08 8.533333a25.6 25.6 0 1 0 0 51.2h56.9344V213.333333H196.266667a25.6 25.6 0 0 0 0 51.2h631.466666a25.6 25.6 0 0 0 0-51.2h-290.747733v-153.6H593.92a25.6 25.6 0 1 0 0-51.2z m-174.8992 290.133334a51.2 51.2 0 0 0-51.2 51.2V674.133333a51.2 51.2 0 0 0 51.2 51.2h513.672533a51.2 51.2 0 0 0 51.2-51.2V349.866667a51.2 51.2 0 0 0-51.2-51.2z m32.0512 162.133333a25.634133 25.634133 0 0 1 25.6-25.6h165.239467a25.6 25.6 0 1 1 0 51.2H312.797867a25.634133 25.634133 0 0 1-25.565867-25.6z m0 136.533333a25.634133 25.634133 0 0 1 25.6-25.6h365.226667a25.6 25.6 0 0 1 0 51.2H312.797867a25.634133 25.634133 0 0 1-25.565867-25.6z"  horiz-adv-x="1024" />

    
    <glyph glyph-name="shipinjiankong" unicode="&#58940;" d="M629.316267 657.032533H178.005333A73.386667 73.386667 0 0 1 102.4 583.68v-371.268267a73.386667 73.386667 0 0 1 75.605333-73.352533h451.310934a73.386667 73.386667 0 0 1 75.605333 73.352533V581.461333A74.0352 74.0352 0 0 1 629.316267 657.066667z m309.0432-37.7856a16.7936 16.7936 0 0 1-17.783467-2.218666l-148.957867-115.6096a19.217067 19.217067 0 0 1-6.826666-13.346134v-184.5248a15.837867 15.837867 0 0 1 6.826666-13.346133l148.957867-115.6096a17.066667 17.066667 0 0 1 11.127467-4.437333 16.7936 16.7936 0 0 1 8.9088 2.218666 14.882133 14.882133 0 0 1 8.9088 15.5648V603.682133a16.725333 16.725333 0 0 1-11.1616 15.5648z"  horiz-adv-x="1024" />

    
    <glyph glyph-name="bianhuatuban" unicode="&#58938;" d="M604.603733 38.331733h-116.053333L555.690667 759.466667h205.789866a64.375467 64.375467 0 0 0 63.351467-59.357867l28.125867-309.589333c0.341333-3.140267 32.768-313.173333 11.195733-331.332267s-257.160533-20.855467-259.549867-20.855467z m-179.985066 0H234.5984a64 64 0 0 0-63.658667 69.768534l23.4496 257.9456h260.061867l-29.832533-327.68z m35.566933 394.786134h-259.754667L224.904533 701.44A63.761067 63.761067 0 0 0 288.5632 759.466667h201.386667l-29.832534-326.3488z"  horiz-adv-x="1024" />

    
    <glyph glyph-name="hulinyuanzerenqu" unicode="&#58939;" d="M704.273067 725.333333a206.404267 206.404267 0 0 1-204.970667-209.3056c0-87.722667 55.876267-128.4096 103.3216-195.8912 37.307733-52.360533 76.253867-96.221867 93.184-116.497066a14.370133 14.370133 0 0 1 8.4992-5.051734 11.605333 11.605333 0 0 1 8.430933 5.051734 1292.151467 1292.151467 0 0 1 93.184 116.497066c47.445333 67.4816 103.355733 108.168533 103.355734 195.8912A206.4384 206.4384 0 0 1 704.273067 725.333333z m0-292.829866a87.8592 87.8592 0 1 0 87.8592 87.8592 88.064 88.064 0 0 0-87.8592-87.8592z m-87.8592-199.918934l-454.587734 24.302934 53.009067 185.2416a20.8896 20.8896 0 0 0 19.626667 15.940266l234.257066 7.611734a724.343467 724.343467 0 0 1 56.2176-116.5312 1297.066667 1297.066667 0 0 1 91.477334-116.5312z m-147.694934-204.0832l-343.1424 2.048a18.158933 18.158933 0 0 0-17.851733 8.840534C102.4 42.8032 102.4 50.039467 102.4 57.207467l46.3872 161.450666 441.821867-29.3888-121.821867-160.699733z m424.106667 134.826667l-136.533333 12.6976q43.52 53.384533 85.162666 108.2368c1.7408 7.031467 7.133867 10.615467 10.6496 17.681067z m26.9312-102.6048c0-1.7408 1.809067-5.3248 1.809067-7.099733a23.483733 23.483733 0 0 0-23.176534-23.074134H503.842133l124.450134 151.210667 271.837866-50.141867 19.6608-70.929066z"  horiz-adv-x="1024" />

    
    <glyph glyph-name="rili" unicode="&#58993;" d="M170.012826-128A170.266297 170.266297 0 0 0 0.328884 43.067036v568.524917a170.411886 170.411886 0 0 0 169.683942 171.067036H218.712335V837.837208a58.235587 58.235587 0 0 0 116.471174 0v-55.178219h349.413521V837.837208a58.235587 58.235587 0 0 0 116.471173 0v-55.178219h48.917893a170.266297 170.266297 0 0 0 169.611147-171.067036v-568.524917a170.411886 170.411886 0 0 0-169.611147-171.067036z m-56.342931 739.591953v-568.524917a56.706903 56.706903 0 0 1 56.342931-57.216464h680.628421a56.852492 56.852492 0 0 1 56.34293 57.216464v568.524917a56.779697 56.779697 0 0 1-56.34293 57.216464h-48.917893v-50.592166a58.235587 58.235587 0 0 0-116.471174 0v50.592166h-349.413521v-50.592166a58.235587 58.235587 0 0 0-116.471174 0v50.592166h-48.845098a56.779697 56.779697 0 0 1-56.852492-57.216464z m600.845667-508.906235a28.098671 28.098671 0 0 0-29.117793 27.516315V184.361129a28.171465 28.171465 0 0 0 29.117793 27.661904h57.653231a28.24426 28.24426 0 0 0 29.117794-27.661904v-54.159096a28.098671 28.098671 0 0 0-29.117794-27.516315z m-232.942347 0a28.098671 28.098671 0 0 0-29.117793 27.516315V184.361129a28.098671 28.098671 0 0 0 29.117793 27.661904h57.79882a28.098671 28.098671 0 0 0 29.117794-27.661904v-54.159096a28.171465 28.171465 0 0 0-29.117794-27.516315z m-232.942347 0a28.098671 28.098671 0 0 0-29.117794 27.516315V184.361129a28.171465 28.171465 0 0 0 29.117794 27.661904h57.653231a28.24426 28.24426 0 0 0 29.117793-27.661904v-54.159096a28.098671 28.098671 0 0 0-29.117793-27.516315z m465.884694 218.383451a28.171465 28.171465 0 0 0-29.117793 27.661904v54.159095a28.171465 28.171465 0 0 0 29.117793 27.516315h57.653231a28.171465 28.171465 0 0 0 29.117794-27.516315v-54.159095a28.171465 28.171465 0 0 0-29.117794-27.661904z m-232.942347 0a28.098671 28.098671 0 0 0-29.117793 27.661904v54.159095a28.098671 28.098671 0 0 0 29.117793 27.516315h57.79882a28.098671 28.098671 0 0 0 29.117794-27.516315v-54.159095a28.171465 28.171465 0 0 0-29.117794-27.661904z m-232.942347 0a28.171465 28.171465 0 0 0-29.117794 27.661904v54.159095a28.171465 28.171465 0 0 0 29.117794 27.516315h57.653231a28.171465 28.171465 0 0 0 29.117793-27.516315v-54.159095a28.171465 28.171465 0 0 0-29.117793-27.661904z"  horiz-adv-x="1024" />

    
    <glyph glyph-name="bofang" unicode="&#58994;" d="M512 896a512 512 0 1 1 512-512 512 512 0 0 1-512 512z m0-942.08A430.08 430.08 0 1 0 942.08 384 430.656 430.656 0 0 0 512-46.08zM379.456 536.64v-305.344a43.136 43.136 0 0 1 65.92-36.544l254.08 155.776a39.04 39.04 0 0 1 0 66.56L445.056 572.992a43.136 43.136 0 0 1-65.6-36.352z"  horiz-adv-x="1024" />

    
    <glyph glyph-name="sousuo1" unicode="&#59005;" d="M944.746496-128a78.592 78.592 0 0 0-56.0128 23.296l-190.1568 190.208a73.4208 73.4208 0 0 0-9.4208 11.3152 438.2208 438.2208 0 1 0 110.08 109.9776 79.4624 79.4624 0 0 0 11.3152-9.3696l190.208-190.1056A79.2576 79.2576 0 0 0 944.746496-128zM438.890496 749.6704a292.5568 292.5568 0 1 1 292.5568-292.5568 292.9152 292.9152 0 0 1-292.5568 292.5568z"  horiz-adv-x="1024" />

    
    <glyph glyph-name="gongneng" unicode="&#58928;" d="M510.650326 892.412255a30.073747 30.073747 0 0 0 28.543679 0l487.194699-262.380251a39.148632 39.148632 0 0 0 0-66.795375l-487.300221-262.116446a29.968225 29.968225 0 0 0-28.6492 0l-485.400827 263.804797a39.201393 39.201393 0 0 0 0 66.795375z m497.957935-472.896479a31.656576 31.656576 0 0 0 43.897118-17.62216 39.095871 39.095871 0 0 0-15.828288-49.278736l-494.475711-262.907861a29.598898 29.598898 0 0 0-28.279874 0L21.39795 352.61488a39.095871 39.095871 0 0 0-15.828288 49.278736 31.656576 31.656576 0 0 0 43.897119 17.516638l478.436379-255.257521z m-2.21596-213.734646a31.656576 31.656576 0 0 0 43.897118-17.622161 39.095871 39.095871 0 0 0-15.828288-49.278736l-494.475711-262.802338a29.651659 29.651659 0 0 0-28.332635 0L19.129229 138.985755a39.095871 39.095871 0 0 0-15.828288 49.278736 31.656576 31.656576 0 0 0 43.897118 17.516639l478.43638-255.257522z"  horiz-adv-x="1056" />

    
    <glyph glyph-name="renwuliebiao" unicode="&#58932;" d="M511.881509 691.078123h819.281251a102.376302 102.376302 0 1 1 0 204.752604H511.881509a102.376302 102.376302 0 1 1 0-204.752604z m819.281251-204.752603H511.881509a102.376302 102.376302 0 1 1 0-204.752604h819.281251a102.376302 102.376302 0 1 1 0 204.752604z m0-409.505207H511.881509a102.376302 102.376302 0 1 1 0-204.752604h819.281251a102.376302 102.376302 0 1 1 0 204.752604zM102.376302 895.830727a102.376302 102.376302 0 1 1 102.376302-102.376302A96.756439 96.756439 0 0 1 102.376302 895.830727z m0-409.505207A102.376302 102.376302 0 1 1 204.752604 383.949218a96.756439 96.756439 0 0 1-102.376302 102.376302z m0-409.505207a102.376302 102.376302 0 1 1 102.376302-102.376302A96.756439 96.756439 0 0 1 102.376302 76.549476z"  horiz-adv-x="1433" />

    
    <glyph glyph-name="ceju" unicode="&#58933;" d="M984.712533 147.0464l-187.118933 187.050667 191.146667 191.146666a120.354133 120.354133 0 0 1 0 169.915734L823.125333 860.7744a120.081067 120.081067 0 0 1-169.915733 0l-191.146667-191.146667L293.034667 838.656A166.7072 166.7072 0 1 1 57.173333 602.9312l169.028267-169.028267-191.146667-191.146666a120.354133 120.354133 0 0 1 0-169.915734l165.4784-165.341866a120.081067 120.081067 0 0 1 169.915734 0l191.146666 191.146666 187.255467-187.323733 207.189333-24.849067a56.7296 56.7296 0 0 1 5.870934-0.341333 50.039467 50.039467 0 0 1 49.493333 56.593067zM115.131733 660.753067a84.923733 84.923733 0 0 0 0 120.149333 86.971733 86.971733 0 0 0 120.081067 0L404.241067 611.874133l-120.149334-120.149333z m197.973334-695.773867a39.3216 39.3216 0 0 0-54.613334 0l-165.614933 165.614933a38.434133 38.434133 0 0 0 0 54.613334L221.969067 314.299733a39.936 39.936 0 0 1 9.6256-16.9984l71.8848-71.8848a40.96 40.96 0 0 1 57.821866 57.821867L289.28 354.850133a39.799467 39.799467 0 0 1-16.9984 9.6256l104.2432 104.2432a39.799467 39.799467 0 0 1 9.6256-16.9984l112.093867-112.162133a40.96 40.96 0 1 1 57.821866 57.821867L444.245333 509.5424a39.799467 39.799467 0 0 1-16.9984 9.6256l104.2432 104.2432a39.799467 39.799467 0 0 1 9.6256-16.9984l71.8848-71.8848a40.96 40.96 0 0 1 57.821867 57.821867L598.9376 664.234667a39.662933 39.662933 0 0 1-16.9984 9.6256l129.092267 129.092266a38.365867 38.365867 0 0 0 54.613333 0l165.341867-165.546666a38.434133 38.434133 0 0 0 0-54.613334z m474.043733 23.893333l-167.458133 167.3216 120.149333 119.944534 167.5264-167.5264 18.0224-136.533334z"  horiz-adv-x="1024" />

    
    <glyph glyph-name="shangbao" unicode="&#58934;" d="M548.430033 530.27142V347.439836a36.592223 36.592223 0 0 0-73.119681 0V530.27142H349.860555a18.263729 18.263729 0 0 0-13.665414 30.439548l161.91249 182.313464a18.263729 18.263729 0 0 0 27.330828 0l161.91249-182.313464a18.263729 18.263729 0 0 0-13.730179-30.439548zM146.109877 822.879672v-877.759991h731.455865V822.879672z m0 73.11968h731.455865a73.119681 73.119681 0 0 0 73.443506-73.11968v-877.759991a73.119681 73.119681 0 0 0-73.119681-73.119681H146.109877A73.119681 73.119681 0 0 0 72.990197-54.880319V822.879672A73.119681 73.119681 0 0 0 146.109877 895.999352z m146.304126-658.271419h475.439836a36.592223 36.592223 0 0 0 0-73.119681H292.414003a36.592223 36.592223 0 0 0 0 73.119681z m0-146.304126h475.439836a36.592223 36.592223 0 0 0 0-73.119681H292.414003a36.592223 36.592223 0 0 0 0 73.119681z"  horiz-adv-x="1024" />

    
    <glyph glyph-name="dangqianweizhi" unicode="&#58935;" d="M461.259587 383.359116A49.960106 49.960106 0 1 1 511.219693 433.319223a49.960106 49.960106 0 0 1-49.960106-49.960107zM972.479279 433.040376h-52.004985a410.509413 410.509413 0 0 1-117.812902 241.667491 411.996598 411.996598 0 0 1-131.011665 88.301583 407.767417 407.767417 0 0 1-110.748775 29.41837V844.618703a49.867157 49.867157 0 1 1-99.68784 0v-52.004985a410.509413 410.509413 0 0 1-241.667491-117.812902 411.996598 411.996598 0 0 1-88.301583-131.011665 407.767417 407.767417 0 0 1-29.41837-110.748775H49.820683a49.867157 49.867157 0 0 1 0-99.68784h52.004985a410.509413 410.509413 0 0 1 117.812902-241.667492 411.996598 411.996598 0 0 1 131.011665-88.301583 407.767417 407.767417 0 0 1 110.748775-29.41837v-52.004985a49.867157 49.867157 0 0 1 99.68784 0v51.865562a410.509413 410.509413 0 0 1 241.667491 117.812902 411.996598 411.996598 0 0 1 88.301584 131.011665 407.767417 407.767417 0 0 1 29.418369 110.748775h52.004985a49.867157 49.867157 0 1 1 0 99.68784z m-411.531852-366.823367v86.907348a49.867157 49.867157 0 0 1-99.68784 0v-86.907348a321.69661 321.69661 0 0 0-267.321425 267.321425h86.907347a49.867157 49.867157 0 1 1 0 99.68784h-86.907347a321.69661 321.69661 0 0 0 267.321425 267.321425v-86.907348a49.867157 49.867157 0 0 1 99.68784 0v86.907348a321.69661 321.69661 0 0 0 267.321424-267.321425h-86.907347a49.867157 49.867157 0 0 1 0-99.68784h86.907347a321.69661 321.69661 0 0 0-267.321424-267.321425z"  horiz-adv-x="1027" />

    
    <glyph glyph-name="biaoji" unicode="&#58936;" d="M784.441807 488.794763a43.075692 43.075692 0 0 1-45.738056-9.693738l-107.859896-107.859895a43.075692 43.075692 0 0 1-8.806282-47.786029 335.526193 335.526193 0 0 0-39.73067-346.107386l-233.400622 233.332356-243.640485 243.70875a335.935788 335.935788 0 0 0 346.107386 39.730671 43.348755 43.348755 0 0 1 47.786029 8.738017l107.859895 107.859895a43.143958 43.143958 0 0 1 9.693738 45.806322 136.121918 136.121918 0 0 0 21.70851 135.644058l281.664512-281.664511a135.985387 135.985387 0 0 0-135.712324-21.640245m226.915374 51.540647L668.390021 883.507367a43.007427 43.007427 0 0 1-60.688257 0l-21.162385-21.162385a221.863708 221.863708 0 0 1-58.367221-209.302809L458.745883 583.547633A426.183118 426.183118 0 0 1 12.492633 486.405461a42.939161 42.939161 0 0 1 0-60.551726l245.756724-245.756723-145.26953-144.723404a42.802629 42.802629 0 0 1 60.551726-60.551726l145.132998 144.996467 235.243797-235.243797a42.734364 42.734364 0 0 1 60.551726 0 425.773523 425.773523 0 0 1 96.937374 446.25325l69.562806 69.426275a221.044519 221.044519 0 0 1 209.302809 58.367221l21.162385 21.162385a42.802629 42.802629 0 0 1 0 60.688257"  horiz-adv-x="1024" />

    


  </font>
</defs>
</svg>
